<svg id="Capa_1" enable-background="new 0 0 512 512" height="512" viewBox="0 0 512 512" width="512" xmlns="http://www.w3.org/2000/svg"><g><g><path d="m335.922 358.016c-4.142 0-7.5 3.358-7.5 7.5s3.358 7.5 7.5 7.5h.114c4.142 0 7.5-3.358 7.5-7.5s-3.358-7.5-7.5-7.5z"/><path d="m386.294 396.625c-4.142 0-7.5 3.358-7.5 7.5s3.358 7.5 7.5 7.5h.113c4.142 0 7.5-3.358 7.5-7.5s-3.358-7.5-7.5-7.5z"/><path d="m110.483 138.527c4.142 0 7.5-3.358 7.5-7.5v-10.091c0-4.142-3.358-7.5-7.5-7.5s-7.5 3.358-7.5 7.5v10.091c0 4.142 3.358 7.5 7.5 7.5z"/><path d="m152.521 127.472c4.142 0 7.5-3.358 7.5-7.5v-10.092c0-4.142-3.358-7.5-7.5-7.5s-7.5 3.358-7.5 7.5v10.092c0 4.142 3.358 7.5 7.5 7.5z"/><path d="m69.465 154.119c4.142 0 7.5-3.358 7.5-7.5v-10.092c0-4.142-3.358-7.5-7.5-7.5s-7.5 3.358-7.5 7.5v10.092c0 4.142 3.358 7.5 7.5 7.5z"/><path d="m194.559 138.527c4.142 0 7.5-3.358 7.5-7.5v-10.091c0-4.142-3.358-7.5-7.5-7.5s-7.5 3.358-7.5 7.5v10.091c0 4.142 3.358 7.5 7.5 7.5z"/><path d="m227.582 155.309c4.142 0 7.5-3.358 7.5-7.5v-10.092c0-4.142-3.358-7.5-7.5-7.5s-7.5 3.358-7.5 7.5v10.092c0 4.142 3.358 7.5 7.5 7.5z"/><path d="m108.385 245.137h-34.016c-6.84 0-12.404 5.564-12.404 12.404v34.017c0 6.839 5.564 12.404 12.404 12.404h34.016c6.84 0 12.404-5.564 12.404-12.404v-34.017c0-6.839-5.564-12.404-12.404-12.404zm-2.596 43.825h-28.824v-28.825h28.824z"/><path d="m152.521 405.979h-.113c-4.142 0-7.5 3.358-7.5 7.5s3.358 7.5 7.5 7.5h.113c4.142 0 7.5-3.358 7.5-7.5s-3.358-7.5-7.5-7.5z"/><path d="m511.909 451.475c-5.59-35.21-23.95-65.53-54.56-90.11-3.23-2.59-7.95-2.07-10.54 1.16-2.6 3.23-2.08 7.95 1.15 10.54 25.04 20.11 40.97 44.32 47.44 72.09h-213.857v-55.443h.862c14.045 0 25.472-11.427 25.472-25.472s-11.427-25.472-25.472-25.472h-1.514v-19.298c8.136.293 34.129 2.725 39.049 3.425 19.18 2.7 37.59 6.87 54.8 12.39 4.15 1.32 8.23 2.73 12.24 4.23 12.52 4.64 24.29 10.04 35.12 16.15 1.16.66 2.43.97 3.67.97 2.62 0 5.17-1.38 6.54-3.82 2.04-3.6.77-8.18-2.84-10.22-12.67-7.15-26.53-13.38-41.33-18.61-5.57-34.91-11.17-82.83-4.77-125.94 5.1-.89 9.9-3.1 13.98-6.5 1.86-1.55 3.5-3.29 4.91-5.18 22.28 10.7 33.51 25.08 33.62 25.22.85 1.12 1.99 1.98 3.31 2.48l47.48 18.06c.86.33 1.77.49 2.66.49 1.53 0 3.05-.47 4.33-1.38 2.04-1.43 3.23-3.79 3.17-6.29-.68-31.4-11.23-55.8-30.11-70.59l35.42-9.51c2.45-.66 4.41-2.52 5.19-4.94s.28-5.07-1.33-7.04c-24.12-29.57-48.44-36.79-66.14-36.95l20.44-27.64c1.47-1.99 1.87-4.57 1.06-6.9-.8-2.34-2.7-4.13-5.08-4.79-29.83-8.28-55.03-5.71-74.9 7.67-14.59 9.82-26.51 25.44-36.23 47.47-9.65-11.8-21.6-20.78-34.65-25.62-18.94-7.03-39.48-5.46-59.68 4.51-21.54-16.93-53.1-31.21-98.3-31.21-64.42 0-101.15 29-120.62 53.34-23.549 29.421-31.899 63.96-31.899 84.59v9.07c0 4.14 3.36 7.5 7.5 7.5h16.651v124.897c-13.433.689-24.151 11.836-24.151 25.438 0 12.68 9.314 23.222 21.458 25.153v55.762h-9.678c-4.142 0-7.5 3.358-7.5 7.5s3.358 7.5 7.5 7.5l492.719-.001c2.19 0 4.28-.96 5.7-2.63 1.43-1.669 2.05-3.879 1.71-6.049zm-197.22-199.78c-2.52 12.53-7.96 49.35-8.47 54.46-8.348-.831-16.8-1.388-25.329-1.684v-90.566h16.649c4.14 0 7.5-3.36 7.5-7.5v-9.07c0-4.09-.33-8.73-1.04-13.75 5.22-2.21 10.64-4.02 16.21-5.43 2.19 4.76 5.59 8.89 9.85 11.94-5.2 16.79-15.33 61.22-15.37 61.6zm-21.93-106.559c7.43 1.22 16.94 3.62 27.34 8.29-1.32 2.94-2.19 6.14-2.5 9.52-.02.14-.02.28-.03.42-5.67 1.38-11.22 3.13-16.59 5.25-1.94-7.49-4.64-15.43-8.22-23.48zm73.06 80.209c-.33 7.93-.37 15.88-.19 23.75l-34.45-3.16c1.72-7.99 3.53-15.82 5.4-23.29zm-25.36-17.4c1.21-4.35 2.42-8.51 3.61-12.41.24.02.48.06.72.08.94.09 1.87.13 2.79.13 4.52 0 8.93-1.02 12.95-2.96 2.4 1.74 5.05 3.12 7.86 4.08-.65 4.47-1.17 8.97-1.59 13.5zm25.79 56.27c.48 8.17 1.15 16.18 1.96 23.94l-44.07-4.03c1.17-7.72 2.54-15.58 4.04-23.4zm-45.14 43.71c.29-2.92.62-5.9.99-8.92l47.9 4.38c.69 5.32 1.41 10.47 2.16 15.41-16.21-4.76-33.34-8.42-51.05-10.87zm72-138.089c-.36 3.99-2.26 7.61-5.35 10.18s-6.99 3.78-10.99 3.41c-1.48-.13-2.91-.49-4.27-1.03 2.77-4.12 4.47-8.89 4.94-13.97.46-5.1-.36-10.12-2.35-14.69 1.44-.3 2.92-.39 4.43-.24 4.01.36 7.64 2.27 10.21 5.36.26.32.5.64.73.98.07.1.15.21.22.31 1.9 2.849 2.76 6.22 2.43 9.69zm87.98 44.119-34.71-13.2c-4.09-4.78-16.79-18.11-38.47-28.32.05-.4.1-.81.14-1.22.33-3.58.03-7.12-.86-10.49 17.59-3.93 31.78-2.69 38.22-1.71 20.4 8.851 32.6 27.71 35.68 54.94zm5.37-80.429-39.38 10.57c-9.55-1.39-26.81-2.4-47.72 3.09-3.55-3.54-7.86-6.11-12.61-7.51 10.71-13.61 24.23-23.06 38.46-26.88.07-.01.13-.03.2-.05 3.29-.87 6.63-1.44 9.97-1.69 17.66-1.33 35.15 6.41 51.08 22.47zm-96.7-56.83c13.95-9.39 30.94-12.09 51.71-8.18l-22.57 30.51c-19.72 6.04-37.91 20.61-50.8 41.11-1 .36-1.97.77-2.93 1.23-1.29-.94-2.65-1.77-4.07-2.48-1.71-4.26-3.67-8.36-5.85-12.27 9.23-24.15 20.53-40.51 34.51-49.92zm-42.24 73.96c.46 0 .92.02 1.38.06 8.25.75 14.35 8.08 13.6 16.34-.37 4.01-2.27 7.63-5.36 10.21-3.08 2.56-6.98 3.78-10.97 3.41-8.27-.77-14.39-8.11-13.63-16.37.3-3.33 1.69-6.32 3.78-8.64.05-.06.1-.12.16-.18 2.77-2.99 6.73-4.83 11.04-4.83zm-42.24-50.49c13.88 5.15 26.32 16.21 35.18 30.82.06.11 1.97 3.39 2.8 4.98-4.93.7-9.52 2.62-13.41 5.46-19.01-9.24-36-11.72-45.39-12.33-3.31-5.54-7.06-11.03-11.32-16.35-2.93-3.67-6.27-7.45-10.03-11.22 14.58-5.87 28.73-6.35 42.17-1.36zm-290.279 98.739v-1.57c0-40.11 33.62-122.93 137.52-122.93 90.14 0 127.37 62.32 135.66 105.02.03.67.15 1.35.37 2.01 1.01 5.76 1.49 11.13 1.49 15.9v1.57h-13.78l-22.05-19.75c-3.04-2.72-7.71-2.51-10.49.48l-18.688 20.087-.012-.007-18.681-20.08c-1.42-1.52-3.4-2.39-5.49-2.39-1.04 0-2.06.22-2.99.63-.94.4-1.79 1-2.5 1.77l-18.66 20.08-18.69-20.09c-1.42-1.52-3.41-2.39-5.49-2.39s-4.07.87-5.49 2.39l-18.688 20.088-.011-.008-18.651-20.07c-1.41-1.53-3.4-2.4-5.49-2.4-1.04 0-2.06.22-2.99.63-.94.4-1.79 1-2.5 1.76l-18.69 20.09-18.69-20.09c-2.78-2.99-7.45-3.2-10.49-.48l-22.05 19.75zm250.89 112.758v27.105h-31.006v-49.535c0-22.971-18.687-41.659-41.658-41.659s-41.658 18.688-41.658 41.659v49.535h-112.417v-129.014l16.199-14.509 19.17 20.6c1.42 1.53 3.41 2.39 5.49 2.39s4.07-.86 5.49-2.39l18.69-20.08 18.66 20.08c1.412 1.521 3.378 2.378 5.454 2.388.012 0 .022.006.034.006h.002c.022 0 .04-.007.062-.008 1.018-.009 2.016-.225 2.927-.617.94-.41 1.79-1 2.5-1.77l18.69-20.09 18.69 20.09c1.42 1.53 3.41 2.39 5.49 2.39 1.04 0 2.06-.22 3-.62.94-.41 1.79-1 2.5-1.77l18.608-20.034.051-.037 18.682 20.071c1.42 1.53 3.41 2.39 5.49 2.39s4.07-.86 5.49-2.39l19.17-20.6 16.182 14.486.019.023v101.882c0 .003-.001.006-.001.009-.001.007 0 .013 0 .019zm-46.006 27.105h-53.315v-49.535c0-14.7 11.958-26.659 26.658-26.659 14.699 0 26.658 11.959 26.658 26.659v49.535zm-164.438 106.387h-18.988v-55.443h18.987v55.443zm211.096 0h-18.987v-55.443h18.987zm-95.965-70.443c-4.142 0-7.5 3.358-7.5 7.5s3.358 7.5 7.5 7.5h61.977v55.443h-162.108v-55.443h65.52c4.142 0 7.5-3.358 7.5-7.5s-3.358-7.5-7.5-7.5h-110.494c-5.774 0-10.472-4.698-10.472-10.472s4.698-10.472 10.472-10.472h133.597 68.315 55.02c5.774 0 10.472 4.698 10.472 10.472s-4.698 10.472-10.472 10.472z"/></g></g></svg>