<svg id="Capa_1" data-name="Capa 1" xmlns="http://www.w3.org/2000/svg" viewBox="0 0 512 408.31"><path d="M335.92,358a7.5,7.5,0,0,0,0,15H336a7.5,7.5,0,0,0,0-15Z" transform="translate(0 -51.84)" fill="#fff"/><path d="M386.29,396.63a7.5,7.5,0,0,0,0,15h.12a7.5,7.5,0,0,0,0-15Z" transform="translate(0 -51.84)" fill="#fff"/><path d="M110.48,138.53A7.5,7.5,0,0,0,118,131V120.94a7.5,7.5,0,0,0-15,0V131A7.5,7.5,0,0,0,110.48,138.53Z" transform="translate(0 -51.84)" fill="#fff"/><path d="M152.52,127.47A7.5,7.5,0,0,0,160,120V109.88a7.5,7.5,0,1,0-15,0V120A7.5,7.5,0,0,0,152.52,127.47Z" transform="translate(0 -51.84)" fill="#fff"/><path d="M69.46,154.12a7.5,7.5,0,0,0,7.5-7.5V136.53a7.5,7.5,0,0,0-15,0v10.09A7.5,7.5,0,0,0,69.46,154.12Z" transform="translate(0 -51.84)" fill="#fff"/><path d="M194.56,138.53a7.5,7.5,0,0,0,7.5-7.5V120.94a7.5,7.5,0,0,0-15,0V131A7.5,7.5,0,0,0,194.56,138.53Z" transform="translate(0 -51.84)" fill="#fff"/><path d="M227.58,155.31a7.5,7.5,0,0,0,7.5-7.5V137.72a7.5,7.5,0,0,0-15,0v10.09A7.5,7.5,0,0,0,227.58,155.31Z" transform="translate(0 -51.84)" fill="#fff"/><path d="M108.39,245.14h-34A12.41,12.41,0,0,0,62,257.54v34A12.41,12.41,0,0,0,74.37,304h34a12.41,12.41,0,0,0,12.4-12.4v-34a12.42,12.42,0,0,0-12.4-12.4ZM105.79,289H77V260.14h28.82Z" transform="translate(0 -51.84)" fill="#fff"/><path d="M152.52,406h-.11a7.5,7.5,0,1,0,0,15h.11a7.5,7.5,0,0,0,0-15Z" transform="translate(0 -51.84)" fill="#fff"/><path d="M511.91,451.48c-5.59-35.21-24-65.53-54.56-90.12A7.5,7.5,0,0,0,448,373.07c25,20.1,41,44.32,47.44,72.08H281.54V389.71h.86a25.47,25.47,0,1,0,0-50.94h-1.51v-19.3c8.14.29,34.13,2.73,39.05,3.42a330.86,330.86,0,0,1,54.8,12.4q6.22,2,12.24,4.23a244.27,244.27,0,0,1,35.12,16.15,7.42,7.42,0,0,0,3.67,1,7.51,7.51,0,0,0,3.7-14A261.29,261.29,0,0,0,388.14,324C382.57,289.07,377,241.15,383.37,198a29.79,29.79,0,0,0,14-6.5,30.4,30.4,0,0,0,4.91-5.18c22.28,10.7,33.51,25.08,33.62,25.22a7.48,7.48,0,0,0,3.31,2.48l47.48,18.06a7.5,7.5,0,0,0,10.16-7.18c-.68-31.4-11.23-55.8-30.11-70.59l35.42-9.5a7.5,7.5,0,0,0,3.86-12c-24.12-29.57-48.44-36.79-66.14-36.95L460.3,68.28a7.51,7.51,0,0,0-4-11.69c-29.83-8.28-55-5.71-74.9,7.67-14.59,9.82-26.51,25.44-36.23,47.47C335.5,99.93,323.55,91,310.5,86.11c-18.94-7-39.48-5.46-59.68,4.51-21.54-16.93-53.1-31.21-98.3-31.21-64.42,0-101.15,29-120.62,53.34C8.35,142.17,0,176.71,0,197.34v9.06a7.5,7.5,0,0,0,7.5,7.5H24.15V338.8a25.47,25.47,0,0,0-2.69,50.59v55.76H11.78a7.5,7.5,0,1,0,0,15H504.5a7.51,7.51,0,0,0,7.41-8.68ZM314.69,251.7c-2.52,12.53-8,49.35-8.47,54.45q-12.53-1.25-25.33-1.68V213.9h16.65a7.5,7.5,0,0,0,7.5-7.5v-9.07a99.21,99.21,0,0,0-1-13.75,112.17,112.17,0,0,1,16.21-5.43,30.35,30.35,0,0,0,9.85,11.95c-5.2,16.79-15.33,61.22-15.37,61.6ZM292.76,145.14a110.85,110.85,0,0,1,27.34,8.29,29.86,29.86,0,0,0-2.5,9.52c0,.14,0,.28,0,.42A126.94,126.94,0,0,0,301,168.62,151.47,151.47,0,0,0,292.76,145.14Zm73.06,80.21c-.33,7.93-.37,15.88-.19,23.75l-34.45-3.16c1.72-8,3.53-15.82,5.4-23.29ZM340.46,208c1.21-4.35,2.42-8.51,3.61-12.41l.72.08c.94.09,1.87.13,2.79.13a29.75,29.75,0,0,0,12.95-3,29.83,29.83,0,0,0,7.86,4.08c-.65,4.47-1.17,9-1.59,13.5Zm25.79,56.27c.48,8.17,1.15,16.18,2,23.94l-44.07-4c1.17-7.72,2.54-15.58,4-23.4Zm-45.14,43.71c.29-2.92.62-5.9,1-8.92l47.9,4.38c.69,5.32,1.41,10.47,2.16,15.41A353.51,353.51,0,0,0,321.11,307.93Zm72-138.09a15,15,0,0,1-16.34,13.59,15.15,15.15,0,0,1-4.27-1,30.09,30.09,0,0,0,2.59-28.66,14.56,14.56,0,0,1,4.43-.24,14.94,14.94,0,0,1,10.21,5.36c.26.32.5.64.73,1l.22.31A14.81,14.81,0,0,1,393.11,169.84Zm88,44.12-34.71-13.2c-4.09-4.78-16.79-18.11-38.47-28.32,0-.4.1-.81.14-1.22a30.18,30.18,0,0,0-.86-10.49A106.14,106.14,0,0,1,445.41,159c20.4,8.85,32.6,27.71,35.68,54.94Zm5.37-80.43L447.08,144.1a121.3,121.3,0,0,0-47.72,3.09,29.74,29.74,0,0,0-12.61-7.51c10.71-13.61,24.23-23.06,38.46-26.88l.2,0a55.12,55.12,0,0,1,10-1.69c17.66-1.33,35.15,6.41,51.08,22.47ZM389.76,76.7c13.95-9.39,30.94-12.09,51.71-8.18L418.9,99c-19.72,6-37.91,20.61-50.8,41.11a31.28,31.28,0,0,0-2.93,1.23,28.72,28.72,0,0,0-4.07-2.48,107.24,107.24,0,0,0-5.85-12.27C364.48,102.47,375.78,86.11,389.76,76.7Zm-42.24,74q.69,0,1.38.06a15,15,0,1,1-16.36,13.59,14.88,14.88,0,0,1,3.78-8.64l.16-.18a15,15,0,0,1,11-4.83Zm-42.24-50.49c13.88,5.15,26.32,16.21,35.18,30.82.06.11,2,3.39,2.8,5a29.88,29.88,0,0,0-13.41,5.46,123.86,123.86,0,0,0-45.39-12.33,145.59,145.59,0,0,0-11.32-16.35,136.7,136.7,0,0,0-10-11.22C277.69,95.66,291.84,95.18,305.28,100.17ZM15,198.9v-1.57C15,157.22,48.62,74.4,152.52,74.4c90.14,0,127.37,62.32,135.66,105a7.41,7.41,0,0,0,.37,2,93,93,0,0,1,1.49,15.9v1.57H276.26l-22-19.75a7.5,7.5,0,0,0-10.49.48L225,199.72h0l-18.68-20.08a7.51,7.51,0,0,0-5.49-2.39,7.42,7.42,0,0,0-3,.63,7.27,7.27,0,0,0-2.5,1.77L176.7,199.72,158,179.63a7.5,7.5,0,0,0-11,0l-18.69,20.09h0l-18.65-20.07a7.46,7.46,0,0,0-5.49-2.4,7.27,7.27,0,0,0-3,.64,7.35,7.35,0,0,0-2.5,1.75L80,199.72,61.32,179.63a7.5,7.5,0,0,0-10.49-.48l-22,19.75ZM265.89,311.66v27.11h-31V289.23a41.66,41.66,0,1,0-83.31,0v49.54H39.15v-129l16.2-14.51,19.17,20.61a7.5,7.5,0,0,0,11,0l18.69-20.09,18.66,20.09a7.46,7.46,0,0,0,5.45,2.38h.1a7.48,7.48,0,0,0,5.43-2.39l18.69-20.09,18.69,20.09a7.48,7.48,0,0,0,5.49,2.39,7.67,7.67,0,0,0,3-.62,7.41,7.41,0,0,0,2.5-1.77l18.61-20,.05,0,18.68,20.07a7.5,7.5,0,0,0,11,0l19.17-20.6,16.18,14.49,0,0V311.63h0Zm-46,27.11H166.57V289.23a26.66,26.66,0,1,1,53.32,0v49.54ZM55.45,445.15h-19V389.71h19v55.44Zm211.09,0h-19V389.71h19Zm-96-70.44a7.5,7.5,0,1,0,0,15h62v55.44H70.45V389.71H136a7.5,7.5,0,0,0,0-15H25.47a10.47,10.47,0,0,1,0-20.94H282.4a10.47,10.47,0,1,1,0,20.94Z" transform="translate(0 -51.84)" fill="#fff"/></svg>