<svg id="Layer_1" data-name="Layer 1" xmlns="http://www.w3.org/2000/svg" viewBox="0 0 448 448.04"><path d="M313.27,124.64,198.73,51.36a32,32,0,0,0-29.28.35L56.51,127.49A16,16,0,0,0,48,141.63v295.8a16,16,0,0,0,23.49,14.14l97.82-63.79a32,32,0,0,1,29.5-.24l111.86,73a32,32,0,0,0,29.27-.11l115.43-75.94a16,16,0,0,0,8.63-14.2V74.57a16,16,0,0,0-23.49-14.14l-98,63.86A32,32,0,0,1,313.27,124.64Z" transform="translate(-32 -31.99)" fill="none" stroke="#ffb890" stroke-linecap="round" stroke-linejoin="round" stroke-width="32"/><line x1="296" y1="96.01" x2="296" y2="432.01" fill="none" stroke="#ffb890" stroke-linecap="round" stroke-linejoin="round" stroke-width="32"/><line x1="152" y1="16.01" x2="152" y2="352.01" fill="none" stroke="#ffb890" stroke-linecap="round" stroke-linejoin="round" stroke-width="32"/></svg>